<svg preserveAspectRatio="xMidYMid meet" id="comp-kihx6u2esvgcontent" data-bbox="49.9 19.9 100 160.2" viewBox="49.9 19.9 100 160.2" xmlns="http://www.w3.org/2000/svg" data-type="color" role="img">
    <g>
        <path d="M130 155.1v10c0 2.8-2.2 5-5 5h-5c0 5.5-4.5 10-10 10H90c-5.4 0-10-4.5-10-10h-5c-2.8 0-5-2.2-5-5v-10c0-2.8 2.2-5 5-5h50c2.8 0 5 2.3 5 5zm19.9-85c0 5.2-.8 10.3-2.3 15l-18.2 48.1c-1.3 4-5.1 7-9.6 7h-40c-4.5 0-8.3-2.9-9.6-7L52.2 85c-1.5-4.7-2.3-9.8-2.3-15 0-27.6 22.3-50.1 50-50.1 27.7.1 50 22.4 50 50.2zM105 40c0-2.8-2.2-5-5-5-19.2 0-34.9 15.7-34.9 35 0 2.8 2.2 5 5 5s5-2.2 5-5c0-13.7 11.3-25 25-25 2.7 0 4.9-2.3 4.9-5z" fill="#eecd42" data-color="1"></path>
    </g>
</svg>