<svg preserveAspectRatio="none" id="comp-kj08fk2fsvgcontent" data-bbox="19.653 47.711 160.693 104.58" viewBox="19.653 47.711 160.693 104.58" height="200" width="200" xmlns="http://www.w3.org/2000/svg" data-type="shape" role="img">
    <g>
        <path fill="#ffffff" d="M177.86 118.848c-1.571 7.243-9.512 10.821-16.144 9.25-7.156-1.658-9.861-9.424-9.163-16.318.436-4.363.785-6.981 1.658-11.78-14.573 19.023-40.752 35.08-58.379 41.973-26.702 10.472-62.567 12.566-70.247 8.115-5.672-3.316-10.384-16.144 1.222-15.882 17.016.262 39.356-3.927 55.063-9.773 13.089-4.887 39.966-22.077 50.961-39.006-1.222.611-11.955 7.243-15.184 8.901-4.276 2.182-13.089.175-16.493-5.672-3.752-6.457.96-15.446 3.665-17.802 7.592-6.632 17.627-9.773 26.79-13.7 8.377-3.491 16.842-6.719 25.568-8.988 7.33-1.92 13.7 2.443 16.144 9.25 7.157 19.894 9.164 40.576 4.539 61.432z"></path>
    </g>
</svg>