<svg preserveAspectRatio="xMidYMid meet" id="comp-kiocct6jsvgcontent" data-bbox="14.097 15.009 171.906 169.981" viewBox="14.097 15.009 171.906 169.981" xmlns="http://www.w3.org/2000/svg" data-type="color" role="img">
    <g>
        <path d="M57 143.2c9.8 9.8 9.8 25.9 0 35.7-2.7 2.7-6 4.8-9.6 6-.9.4-1.9-.6-1.6-1.5l5.5-18.7c.1-.6.1-1.2-.2-1.5-5.4-7.3-14.5-10-22.9-6.7-.5.2-.9.6-1.1 1.2l-5.5 18.5c-.2.9-1.5 1.2-2.2.5-7.7-10-7-24.2 2-33.4 9.7-9.9 25.8-10 35.6-.1zm0-86.4c9.8-9.8 9.8-25.9 0-35.7-2.7-2.7-6-4.8-9.6-6-.9-.4-1.9.6-1.6 1.5l5.5 18.7c.1.6.1 1.2-.2 1.5-5.4 7.3-14.5 10-22.9 6.7-.5-.2-.9-.6-1.1-1.2l-5.5-18.5c-.2-.9-1.5-1.3-2.2-.5-7.7 10-7 24.2 2 33.4 9.7 9.9 25.8 10 35.6.1zm121.6 0c9-9 9.8-23.4 2-33.4-.6-.8-1.9-.6-2.2.5L173 42.5c-.1.6-.6 1.1-1.1 1.2-8.4 3.3-17.5.6-22.9-6.7-.4-.5-.5-1.1-.2-1.5l5.5-18.7c.2-.9-.7-1.9-1.6-1.5-3.6 1.3-6.9 3.4-9.6 6-9.8 9.8-9.8 25.8 0 35.7 9.8 9.7 25.8 9.6 35.5-.2zm-44.2 2.8c1.8 2.3 3.6 4.1 6 6l-25.5 25.5 6 6 23.6-23.7c3.9-3.9 8.7-6.7 13.8-8.2-5.8-.6-11.5-3-15.9-7.5s-6.9-10.2-7.5-15.9c-1.5 5.3-4.3 10-8.2 13.8l-23.6 23.7 6 6 25.3-25.7zm-68.8 80.8c-1.8-2.3-3.6-4.1-6-6l25.5-25.5-6-6-23.6 23.7c-3.9 3.9-8.7 6.7-13.8 8.2 5.8.6 11.5 3 15.9 7.5s6.9 10.2 7.5 15.9c1.5-5.3 4.3-10 8.2-13.8L97 120.7l-6-6-25.4 25.7zm113 2.8c-9.8-9.8-25.7-9.8-35.6 0-9.8 9.8-9.8 25.9 0 35.7 2.7 2.7 6 4.8 9.6 6 .9.4 1.9-.6 1.6-1.5l-5.5-18.7c-.1-.6-.1-1.2.2-1.5 5.4-7.3 14.5-10 22.9-6.7.5.2.9.6 1.1 1.2l5.4 18.6c.2.9 1.5 1.2 2.2.5 8-10.3 7.2-24.6-1.9-33.6zm-36.2-.8c-4.4 4.5-6.9 10.2-7.5 15.9-1.5-5.3-4.3-10-8.2-13.8l-71-71.2c-3.9-3.9-8.7-6.7-13.8-8.2 5.8-.6 11.5-3 15.9-7.5s6.9-10.2 7.5-15.9c1.5 5.3 4.3 10 8.2 13.8l71 71.2c3.9 3.9 8.7 6.7 13.8 8.2-5.9.6-11.5 3.1-15.9 7.5zm-2.1-8L65.6 59.6c-1.8 2.3-3.6 4.1-6 6l74.6 74.9c2-2.4 3.9-4.3 6.1-6.1z" fill="#eecd42" data-color="1"></path>
    </g>
</svg>