<svg width="24px" height="24px" viewBox="0 0 24 24" version="1.1" xmlns="http://www.w3.org/2000/svg" xmlns:xlink="http://www.w3.org/1999/xlink">
                                <!-- Generator: sketchtool 56.3 (101010) - https://sketch.com -->
                                <title>44f14909-852c-4e35-842b-e50a1cbab17a@1.00x</title>
                                <desc>Created with sketchtool.</desc>
                                <g id="💟-Symbols" stroke="none" stroke-width="1" fill="none" fill-rule="evenodd">
                                    <g id="Icons-/-Like-/-Solid" fill="#ffffff" stroke="#000000">
                                        <g id="09-Icons-/-Heart-/-Empty-Copy" transform="translate(3.000000, 5.000000)">
                                            <path d="M1.34588331,7.64134285 C2.60583756,9.81368091 8.30146379,14.2762885 8.96073693,14.4918947 C8.91720326,14.4852031 8.91492199,14.483305 8.90862003,14.4852346 C8.9358098,14.4671522 8.98620463,14.4371909 9.04350665,14.4024492 C9.24171727,14.2822755 9.49725408,14.1204918 9.77901105,13.93562 C10.5172368,13.4512411 11.3211717,12.885205 12.1041952,12.2866231 C14.2651651,10.6346709 15.9037789,9.02217002 16.6472624,7.65560557 C17.5235669,5.99470986 17.7394403,4.35943542 17.214065,3.03975083 C16.8805905,2.03765048 16.0363859,1.21457264 14.9130677,0.744932618 C13.0876257,0.0476542412 10.7111043,0.896830164 9.4034324,2.67688953 L9.00811745,3.21500927 L8.60301266,2.68422035 C7.285551,0.958015003 5.07462844,0.086869618 3.15595563,0.755602005 C2.06522027,1.09231407 1.25009588,1.93238755 0.775900227,3.16709008 C0.260078365,4.46053197 0.478838043,6.09472339 1.34588384,7.64134546 Z" id="Love-Selected-Copy-2"></path>
                                        </g>
                                    </g>
                                </g>
                            </svg>